<svg id="phone_all" data-name="phone all" xmlns="http://www.w3.org/2000/svg" width="754" height="679" viewBox="0 0 754 679">
  <metadata><?xpacket begin="﻿" id="W5M0MpCehiHzreSzNTczkc9d"?>
<x:xmpmeta xmlns:x="adobe:ns:meta/" x:xmptk="Adobe XMP Core 5.6-c138 79.159824, 2016/09/14-01:09:01        ">
   <rdf:RDF xmlns:rdf="http://www.w3.org/1999/02/22-rdf-syntax-ns#">
      <rdf:Description rdf:about=""/>
   </rdf:RDF>
</x:xmpmeta>
                                                                                                    
                                                                                                    
                                                                                                    
                                                                                                    
                                                                                                    
                                                                                                    
                                                                                                    
                                                                                                    
                                                                                                    
                                                                                                    
                                                                                                    
                                                                                                    
                                                                                                    
                                                                                                    
                                                                                                    
                                                                                                    
                                                                                                    
                                                                                                    
                                                                                                    
                                                                                                    
                           
<?xpacket end="w"?></metadata>
<defs>
    <style>
      .cls-1 {
        opacity: 0.39;
      }

      .cls-2, .cls-3 {
        fill-rule: evenodd;
      }

      .cls-3, .cls-5 {
        fill: #fef200;
        stroke: #000;
        stroke-width: 2px;
      }

      .cls-4 {
        opacity: 0.15;
      }
    </style>
  </defs>
  <g id="phone_bg" data-name="phone bg" class="cls-1">
    <path id="Rounded_Rectangle_1" data-name="Rounded Rectangle 1" class="cls-2" d="M444.3,1.076l294.607,78.94a20,20,0,0,1,14.142,24.5L603.194,663.782a20,20,0,0,1-24.5,14.142l-294.607-78.94a20,20,0,0,1-14.142-24.5L419.806,15.218A20,20,0,0,1,444.3,1.076Z"/>
    <path class="cls-3" d="M419.921,80.472l300.4,80.492-116.986,436.6-300.4-80.493Z"/>
  </g>
  <g id="phone_bg_copy" data-name="phone bg copy" class="cls-4">
    <path id="Rounded_Rectangle_1-2" data-name="Rounded Rectangle 1" class="cls-2" d="M309.13,0.7L14.827,79.612A19.994,19.994,0,0,0,.7,104.1L150.4,663.162A19.976,19.976,0,0,0,174.87,677.3l294.3-78.91A19.994,19.994,0,0,0,483.3,573.9L333.6,14.838A19.977,19.977,0,0,0,309.13.7Z"/>
    <path class="cls-3" d="M333.484,80.067L33.392,160.53,150.257,596.968,450.35,516.5Z"/>
  </g>
  <g id="phone">
    <rect id="Rounded_Rectangle_1-3" data-name="Rounded Rectangle 1" x="199" y="40" width="345" height="619" rx="20" ry="20"/>
    <rect class="cls-5" x="216" y="123" width="311" height="452"/>
  </g>
</svg>
