<svg id="phone_all" data-name="phone all" xmlns="http://www.w3.org/2000/svg" width="754" height="956" viewBox="0 0 754 956">
  <metadata><?xpacket begin="﻿" id="W5M0MpCehiHzreSzNTczkc9d"?>
<x:xmpmeta xmlns:x="adobe:ns:meta/" x:xmptk="Adobe XMP Core 5.6-c138 79.159824, 2016/09/14-01:09:01        ">
   <rdf:RDF xmlns:rdf="http://www.w3.org/1999/02/22-rdf-syntax-ns#">
      <rdf:Description rdf:about=""/>
   </rdf:RDF>
</x:xmpmeta>
                                                                                                    
                                                                                                    
                                                                                                    
                                                                                                    
                                                                                                    
                                                                                                    
                                                                                                    
                                                                                                    
                                                                                                    
                                                                                                    
                                                                                                    
                                                                                                    
                                                                                                    
                                                                                                    
                                                                                                    
                                                                                                    
                                                                                                    
                                                                                                    
                                                                                                    
                                                                                                    
                           
<?xpacket end="w"?></metadata>
<defs>
    <style>
      .cls-1 {
        opacity: 0.39;
      }

      .cls-2, .cls-3 {
        fill-rule: evenodd;
      }

      .cls-3, .cls-5 {
        fill: #fef200;
        stroke: #000;
        stroke-width: 2px;
      }

      .cls-4 {
        opacity: 0.15;
      }
    </style>
  </defs>
  <g id="phone_bg" data-name="phone bg" class="cls-1">
    <path id="Rounded_Rectangle_1" data-name="Rounded Rectangle 1" class="cls-2" d="M444.3,1.076l294.607,78.94a20,20,0,0,1,14.142,24.5L603.194,663.782a20,20,0,0,1-24.5,14.142l-294.607-78.94a20,20,0,0,1-14.142-24.5L419.806,15.218A20,20,0,0,1,444.3,1.076Z"/>
    <path class="cls-3" d="M419.921,80.471l300.4,80.493-116.986,436.6-300.4-80.493Z"/>
  </g>
  <g id="phone_bg_copy" data-name="phone bg copy" class="cls-4">
    <path id="Rounded_Rectangle_1-2" data-name="Rounded Rectangle 1" class="cls-2" d="M309.13,0.7L14.827,79.612A19.994,19.994,0,0,0,.7,104.1L150.4,663.162A19.976,19.976,0,0,0,174.87,677.3l294.3-78.911A19.993,19.993,0,0,0,483.3,573.9L333.6,14.838A19.977,19.977,0,0,0,309.13.7Z"/>
    <path class="cls-3" d="M333.484,80.067L33.392,160.53,150.257,596.968,450.35,516.5Z"/>
  </g>
  <g id="phone">
    <rect id="Rounded_Rectangle_1-3" data-name="Rounded Rectangle 1" x="199" y="40" width="345" height="619" rx="20" ry="20"/>
    <rect class="cls-5" x="216" y="123" width="311" height="452"/>
  </g>
  <path id="SHAKE_TO_BE_SHOOK" data-name="SHAKE TO BE SHOOK" class="cls-2" d="M114.923,724.2a62.008,62.008,0,0,0-14.04-5.46,56.993,56.993,0,0,0-14.04-1.86,37.194,37.194,0,0,0-13.02,2.16,27.813,27.813,0,0,0-9.84,6.06,27.042,27.042,0,0,0-6.24,9.36,32.047,32.047,0,0,0-2.22,12.18,25.663,25.663,0,0,0,2.1,11.1,21.444,21.444,0,0,0,5.52,7.26,28.089,28.089,0,0,0,7.8,4.62q4.379,1.74,8.94,3.18,3.839,1.321,6.54,2.4a19.261,19.261,0,0,1,4.38,2.34,7.673,7.673,0,0,1,2.4,2.76,8.178,8.178,0,0,1-2.1,9.54q-2.821,2.64-8.58,2.64a25.089,25.089,0,0,1-10.2-2.28,40.842,40.842,0,0,1-10.44-6.96L51.8,802.2a54.5,54.5,0,0,0,31.8,10.2,46.009,46.009,0,0,0,14.82-2.22,31.547,31.547,0,0,0,11.04-6.24,26.283,26.283,0,0,0,6.84-9.66,32.59,32.59,0,0,0,2.34-12.6q0-10.32-5.34-16.74t-16.86-10.26q-2.88-.96-5.82-1.8a32.128,32.128,0,0,1-5.28-1.98,12.549,12.549,0,0,1-3.78-2.7,5.607,5.607,0,0,1-1.44-3.96A6.73,6.73,0,0,1,83,738.6a12.07,12.07,0,0,1,7.44-2.16,20.4,20.4,0,0,1,7.44,1.5,29.09,29.09,0,0,1,7.68,4.62Zm42-4.8H133.4v90.48h23.52v-37.32h33.96v37.32H214.4V719.4h-23.52v34.92h-33.96V719.4Zm104.519,56.88L272,746.163l10.56,30.12h-21.12Zm32.76,33.6h25.08l-34.44-90.48h-25.68l-34.44,90.48H249.8l5.4-15.72h33.6ZM353.12,719.4H329.6v90.48h23.52v-39.24l30.6,39.24H414.2l-39.24-47.64,35.88-42.84H381.8l-28.68,37.32V719.4Zm123,0h-51.48v90.48h51.48v-19.92h-27.96v-15.6h26.4v-19.92h-26.4v-15.12h27.96V719.4Zm111.359,19.92V719.4h-62.16v19.92h19.32v70.56h23.52v-70.56h19.32Zm32.161,15.36a24.911,24.911,0,0,1,13.62-13.14,26.172,26.172,0,0,1,27.72,5.22,24.747,24.747,0,0,1,5.58,7.92,25.334,25.334,0,0,1,0,19.92,24.725,24.725,0,0,1-5.58,7.92,26.39,26.39,0,0,1-27.72,5.22,24.911,24.911,0,0,1-13.62-13.14A25.334,25.334,0,0,1,619.639,754.683Zm-22.92,28.74a46.406,46.406,0,0,0,26.1,25.32,57.518,57.518,0,0,0,40.38,0,47.7,47.7,0,0,0,15.9-10.14,46.412,46.412,0,0,0,10.38-15.18,49.264,49.264,0,0,0,0-37.56,46.423,46.423,0,0,0-10.38-15.18,47.712,47.712,0,0,0-15.9-10.14,57.518,57.518,0,0,0-40.38,0A47.915,47.915,0,0,0,596.719,783.423ZM62.125,916.443h5.16q8.879,0,12.72,2.28t3.84,7.32q0,5.04-3.84,7.32t-12.72,2.28h-5.16v-19.2Zm0-35.04h4.32q11.039,0,11.04,8.76t-11.04,8.76h-4.32V881.4ZM38.6,953.883H76.4a46.225,46.225,0,0,0,12.96-1.68,26.689,26.689,0,0,0,9.78-5.04,22.926,22.926,0,0,0,6.241-8.28A27.175,27.175,0,0,0,107.6,927.6a29.753,29.753,0,0,0-.959-7.68,18.217,18.217,0,0,0-3.18-6.48,18.672,18.672,0,0,0-5.761-4.86,28.457,28.457,0,0,0-8.58-2.94,20.69,20.69,0,0,0,7.5-7.62,23.46,23.46,0,0,0,2.46-11.34q0-11.279-6.48-17.28t-18.96-6H38.6v90.48ZM173.123,863.4h-51.48v90.48h51.48v-19.92h-27.96v-15.6h26.4v-19.92h-26.4v-15.12h27.96V863.4Zm116.758,4.8a62.008,62.008,0,0,0-14.04-5.46,56.99,56.99,0,0,0-14.04-1.86,37.2,37.2,0,0,0-13.02,2.16,27.82,27.82,0,0,0-9.84,6.06,27.053,27.053,0,0,0-6.24,9.36,32.051,32.051,0,0,0-2.22,12.18,25.672,25.672,0,0,0,2.1,11.1A21.446,21.446,0,0,0,238.1,909a28.092,28.092,0,0,0,7.8,4.62q4.38,1.74,8.94,3.18,3.84,1.321,6.54,2.4a19.256,19.256,0,0,1,4.38,2.34,7.667,7.667,0,0,1,2.4,2.76,8.178,8.178,0,0,1-2.1,9.54q-2.82,2.64-8.58,2.64a25.09,25.09,0,0,1-10.2-2.28,40.863,40.863,0,0,1-10.44-6.96l-10.08,18.96a54.5,54.5,0,0,0,31.8,10.2,46.009,46.009,0,0,0,14.82-2.22,31.546,31.546,0,0,0,11.04-6.24,26.283,26.283,0,0,0,6.84-9.66,32.59,32.59,0,0,0,2.34-12.6q0-10.32-5.34-16.74t-16.86-10.26q-2.88-.96-5.82-1.8a32.135,32.135,0,0,1-5.28-1.98,12.549,12.549,0,0,1-3.78-2.7,5.607,5.607,0,0,1-1.44-3.96,6.73,6.73,0,0,1,2.88-5.64,12.07,12.07,0,0,1,7.44-2.16,20.4,20.4,0,0,1,7.44,1.5,29.086,29.086,0,0,1,7.68,4.62Zm42-4.8h-23.52v90.48h23.52v-37.32h33.96v37.32h23.52V863.4h-23.52v34.92h-33.96V863.4Zm99,35.28a24.911,24.911,0,0,1,13.62-13.14,26.172,26.172,0,0,1,27.72,5.22,24.747,24.747,0,0,1,5.58,7.92,25.334,25.334,0,0,1,0,19.92,24.725,24.725,0,0,1-5.58,7.92,26.39,26.39,0,0,1-27.72,5.22,24.911,24.911,0,0,1-13.62-13.14A25.334,25.334,0,0,1,430.88,898.683Zm-22.92,28.74a46.406,46.406,0,0,0,26.1,25.32,57.518,57.518,0,0,0,40.38,0,47.7,47.7,0,0,0,15.9-10.14,46.412,46.412,0,0,0,10.38-15.18,49.264,49.264,0,0,0,0-37.56,46.423,46.423,0,0,0-10.38-15.18,47.712,47.712,0,0,0-15.9-10.14,57.518,57.518,0,0,0-40.38,0A47.915,47.915,0,0,0,407.96,927.423Zm133.919-28.74a24.911,24.911,0,0,1,13.62-13.14,26.172,26.172,0,0,1,27.72,5.22,24.778,24.778,0,0,1,5.58,7.92,25.334,25.334,0,0,1,0,19.92,24.756,24.756,0,0,1-5.58,7.92,26.39,26.39,0,0,1-27.72,5.22,24.911,24.911,0,0,1-13.62-13.14A25.334,25.334,0,0,1,541.879,898.683Zm-22.92,28.74a46.406,46.406,0,0,0,26.1,25.32,57.518,57.518,0,0,0,40.38,0,47.7,47.7,0,0,0,15.9-10.14,46.412,46.412,0,0,0,10.38-15.18,49.264,49.264,0,0,0,0-37.56,46.423,46.423,0,0,0-10.38-15.18,47.712,47.712,0,0,0-15.9-10.14,57.518,57.518,0,0,0-40.38,0A47.915,47.915,0,0,0,518.959,927.423ZM653.837,863.4h-23.52v90.48h23.52v-39.24l30.6,39.24h30.48l-39.24-47.64,35.88-42.84h-29.04l-28.68,37.32V863.4Z"/>
</svg>
