<svg id="cursor_all" data-name="cursor all" xmlns="http://www.w3.org/2000/svg" width="754" height="679" viewBox="0 0 754 679">
  <metadata><?xpacket begin="﻿" id="W5M0MpCehiHzreSzNTczkc9d"?>
<x:xmpmeta xmlns:x="adobe:ns:meta/" x:xmptk="Adobe XMP Core 5.6-c138 79.159824, 2016/09/14-01:09:01        ">
   <rdf:RDF xmlns:rdf="http://www.w3.org/1999/02/22-rdf-syntax-ns#">
      <rdf:Description rdf:about=""/>
   </rdf:RDF>
</x:xmpmeta>
                                                                                                    
                                                                                                    
                                                                                                    
                                                                                                    
                                                                                                    
                                                                                                    
                                                                                                    
                                                                                                    
                                                                                                    
                                                                                                    
                                                                                                    
                                                                                                    
                                                                                                    
                                                                                                    
                                                                                                    
                                                                                                    
                                                                                                    
                                                                                                    
                                                                                                    
                                                                                                    
                           
<?xpacket end="w"?></metadata>
<defs>
    <style>
      .cls-1 {
        opacity: 0.15;
      }

      .cls-2 {
        stroke: #000;
      }

      .cls-2, .cls-3 {
        stroke-width: 10px;
        fill-rule: evenodd;
      }

      .cls-3 {
        stroke: #fdf200;
      }

      .cls-4 {
        opacity: 0.39;
      }
    </style>
  </defs>
  <g id="cursor_left" data-name="cursor left" class="cls-1">
    <path id="outline" class="cls-2" d="M247,570L133,385c-31.335,64.084-54.9,91.3-99.839,119.175C66.061,380.2,49.047,258.1,15,111.99,125.052,214.956,219.082,284.132,345,324c-53.107,23.038-80.361,30.907-156,27L305,536Z"/>
    <path class="cls-3" d="M249.345,561.181L131.853,372.954C103.459,432.022,82.088,465.6,41.362,491.3,71.175,377.019,53.946,260.787,23.1,126.116c99.72,94.908,193.075,161.629,307.177,198.377-48.123,21.235-83.138,23.75-151.678,20.149L296.662,533.863Z"/>
  </g>
  <g id="cursor_right" data-name="cursor right" class="cls-4">
    <path id="outline-2" data-name="outline" class="cls-2" d="M647,570L533,385c-31.335,64.084-54.9,91.3-99.84,119.175C466.061,380.2,449.047,258.1,415,111.99,525.052,214.956,619.082,284.132,745,324c-53.107,23.038-80.361,30.907-156,27L705,536Z"/>
    <path class="cls-3" d="M649.345,561.181L531.853,372.954C503.459,432.022,482.088,465.6,441.362,491.3c29.813-114.278,12.584-230.51-18.264-365.181,99.72,94.908,193.075,161.629,307.177,198.377-48.123,21.235-83.138,23.75-151.678,20.149L696.662,533.863Z"/>
  </g>
  <g id="main">
    <path id="outline-3" data-name="outline" class="cls-2" d="M447,570L333,385c-31.335,64.084-54.9,91.3-99.84,119.175C266.061,380.2,249.047,258.1,215,111.99,325.052,214.956,419.082,284.132,545,324c-53.107,23.038-80.361,30.907-156,27L505,536Z"/>
    <path class="cls-3" d="M449.345,561.181L331.853,372.954C303.459,432.022,282.088,465.6,241.362,491.3c29.813-114.278,12.584-230.51-18.264-365.181,99.72,94.908,193.075,161.629,307.177,198.377-48.123,21.235-83.138,23.75-151.678,20.149L496.662,533.863Z"/>
  </g>
</svg>
