<svg xmlns="http://www.w3.org/2000/svg" width="1047" height="868" viewBox="0 0 1047 868">
  <metadata><?xpacket begin="﻿" id="W5M0MpCehiHzreSzNTczkc9d"?>
<x:xmpmeta xmlns:x="adobe:ns:meta/" x:xmptk="Adobe XMP Core 5.6-c138 79.159824, 2016/09/14-01:09:01        ">
   <rdf:RDF xmlns:rdf="http://www.w3.org/1999/02/22-rdf-syntax-ns#">
      <rdf:Description rdf:about=""/>
   </rdf:RDF>
</x:xmpmeta>
<?xpacket end="w"?></metadata>
<defs>
    <style>
      .cls-1 {
        fill: none;
      }

      .cls-1, .cls-2, .cls-3, .cls-4, .cls-5 {
        stroke: #000;
        stroke-width: 2px;
        fill-rule: evenodd;
      }

      .cls-2 {
        fill: #fff;
      }

      .cls-4 {
        fill: red;
      }

      .cls-5 {
        fill-opacity: 0.2;
      }
    </style>
  </defs>
  <path id="arms" class="cls-1" d="M380,742l-22-28S52.92,699.835,3,603c-17.055-33.084,71.6-153.2,74-155S213,317,213,317s28.342-58,33-62-5.793-60.848-1-75,15-34,15-34,8.97,66.081,6,69,33,33,33,33l13,4,16-11,21,10-16,18S207.291,431.773,205,453c-2.4,22.206-22.442,66.833-37,89-8.078,12.3-2.522-.436,79,1s166,40,166,40l20,20s-34.067,42.159-39,89C388.848,740.92,380,742,380,742ZM510,251s-9.325-80.655-5-99-4.674-6.517-12-8-17.992-16.193-7-19,35.386,1.949,37,8,4.727-.507,5-11-4.758-19.881-11-15-6.874,16.96-8-3,13.4-21.212,19-20,16.435,2.716,19,0,9.722-12.833,16-6,22,22,22,22,22.676,25.205,25,32,5,49,5,49l8-3s-3.045,55.869-9,53-13.833,22.818-8,22,20.594,42.991,31,52C784.189,432.429,822.4,574.347,851,603c-3.2-3.2,37,63,37,63L872,769s-13.594,115.059-68,96c-82.984-29.071-108.625-161.766-100-219,1.1-7.289,10-15,10-15s-97.283-122.743-97-157-65-162-65-162Z"/>
  <g id="head">
    <path id="head_main" data-name="head main" class="cls-1" d="M343,468s-37.1-118.749,61-171c29.494-15.71,93.962-57.445,152-14,24.792,18.559,55.454,81.856,60.244,121.026C618.235,420.308,618.721,515.533,619,516c0,0-47.83,161.021-109,166-13.766,1.121-35-19-35-19s-56.607-85.533-82-94c-8.981-3-13.846-31.542-19-38s-18-25-18-25Z"/>
    <path id="nose" class="cls-1" d="M404,522s9.865,1.113,10,11,2,65,2,65,3.946,6.3,11,5,39-23,39-23-41.467-19.693-40-62C426.149,513.712,404,522,404,522Z"/>
    <g id="mouth">
      <path id="bottom_fill" data-name="bottom fill" class="cls-2" d="M519,595h8l3,6v9l-13,11-14,7-16,4-17-1-7-7"/>
      <path id="bottom_teeth" data-name="bottom teeth" class="cls-3" d="M462,621l10-1,10,2h5l7-1,4-4,6-3,5-2v-7l7-3-2-5,3-3"/>
      <path id="top_teeth" data-name="top teeth" class="cls-2" d="M457,612s2.053,6.234,5,7a13.728,13.728,0,0,0,6,0l2-2,4,2,7-1,2-2,8-1,3-5,6-1,4-7,4-2,5-6"/>
      <path id="lips" class="cls-4" d="M438,609s-1.179-8.245,3-7,16.605,3.988,22,2,14.439-9.566,20-11,14.781-7.619,24-5,15.948-.775,19,3,4,4,4,4,3.573,12.748,3,19-19.615,30.336-35,31a88.612,88.612,0,0,1-29-4s-13.1-18.751-12-22,12.866,9.532,18,11c7.115,2.035,9.567-.475,19-2s28-13,28-13l7-15-5-4-19-2s-3.423,2.282-11,7-18.037,7.4-23,9-18,2-18,2Z"/>
    </g>
    <g id="ear">
      <path id="ear-2" data-name="ear" class="cls-1" d="M586,467s-1.321-34.836,13-50,18.144-23.767,34-12,11.8,59.723,5,67-13,23-13,23-12.572,13.655-16,7-10-22-10-22Z"/>
      <path id="ear_ring" data-name="ear ring" class="cls-1" d="M593,499s9.395,1.181,20-5,19-12,19-12,17.517,25.7,7,33S593,499,593,499Z"/>
    </g>
    <g id="brow">
      <path id="middle" class="cls-1" d="M404,514l10,8V510l5,12,1-16"/>
      <path id="right" class="cls-5" d="M426,504s3.79,18.646,6,19,4,4,4,4-1.519-15.678,2-22c6.244-11.218,60-54,60-54l-68,44Z"/>
      <path id="left" class="cls-5" d="M351,485s36.785,36.821,39,37,8,0,8,0l2,3v2l-16-2s-19.329-20.628-22-22S351,485,351,485Z"/>
    </g>
    <g id="eyes">
      <path id="right-2" data-name="right" class="cls-3" d="M444,518l6-10s14.4,2.53,20,0c19.426-8.777,39.987-39.907,46-51,6.166-11.373,7-13,7-13s-17.025,52.326-24,55-2,4-2,4l8,2s1.811-.275-4,7-26,14-26,14H448l9-8H444Z"/>
      <path id="left-2" data-name="left" class="cls-3" d="M399,525l6,3-5,3,3,3-20,2-15-5-10-3-1-6,6,1,6,2-2-8,12,5,6,3h14Z"/>
    </g>
  </g>
  <g id="hair_front" data-name="hair front">
    <path id="hair_left" data-name="hair left" class="cls-1" d="M257,136s-35.417-.648-37,29,14.12,55.679,21,64-49.577,29.515-30,58,17.664,49,6,68-93,133-93,133l16,68,49,68s6.214,127.306,69,106,22.346,45.143,62,29,29.738-40.295,35-49,25.147-55.051,54-73"/>
    <path id="hair_top" data-name="hair top" class="cls-1" d="M569,98s65.308-14.461,95,74c8.1,24.144,45.68-12.154,61,41,5.838,20.254,36.132,49.567,45,52s60.213-3.77,65,31,25.705,53.64,38,57c15.814,4.322,31.734-23.419,66,27,7.361,10.831,2.383,32.151,20,41,38.8,19.49,27.93,22.081,41,42s38.22,69.844-5,98c-15.166,9.881-5.848,27.85,3,34s16.15,46.211,4,55,11.17-3.666,37,6-20.61,56.128-38,55-35.477-4.492-28,12-23.026,48.491-45,20-50-58-50-58L715,505,618,361l-34-84Zm-296,4s-19.8,15.272-18,26,5.479,21.709-4,34,5.527,25.692,12,29-10.04,43.152,43,40c3.774-.224,27.141,8.951,32,19s26.534,32.523,71,18,29.132,10.319,46,9,45.963,5.981,51-29,41.4-4.462,56-13c22.673-13.261,61.86-94.283,34-129S532.254,1.278,436,0,334.708,45.891,321,49,273,102,273,102Z"/>
  </g>
</svg>
